<svg xmlns="http://www.w3.org/2000/svg" viewBox="0 0 24 24" width="32" height="32">
  <!-- Shield background -->
  <path d="M12,1L3,5V11C3,16.55 6.84,21.74 12,23C17.16,21.74 21,16.55 21,11V5L12,1M12,7C13.4,7 14.8,8.6 14.8,11.5V16H9.2V11.5C9.2,8.6 10.6,7 12,7Z" 
        fill="#f7df1e" stroke="#21262d" stroke-width="0.5"/>
  <!-- Heart -->
  <path d="M12,21.35L10.55,20.03C5.4,15.36 2,12.27 2,8.5C2,5.41 4.42,3 7.5,3C9.24,3 10.91,3.81 12,5.08C13.09,3.81 14.76,3 16.5,3C19.58,3 22,5.41 22,8.5C22,12.27 18.6,15.36 13.45,20.04L12,21.35Z" 
        fill="#161b22" transform="translate(0,-2) scale(0.5) translate(6,8)"/>
</svg> 